<svg width="1200" height="1200" viewBox="0 0 1200 1200" fill="none" xmlns="http://www.w3.org/2000/svg">
    <path d="M600 1200C931.371 1200 1200 931.371 1200 600C1200 268.629 931.371 0 600 0C268.629 0 0 268.629 0 600C0 931.371 268.629 1200 600 1200Z" fill="#4C5AF5"/>
    <path d="M878.122 238.043C855.787 234.439 832.901 236.491 811.575 244.007C790.245 251.525 771.157 264.266 756.071 281.058C727.275 313.2 718.316 355.045 725.231 396.979C731.494 434.794 739.804 473.175 741.675 509.606C744.289 564.476 735.904 619.313 717.011 670.924C699.915 717.619 675.559 753.833 623.362 761.846C619.492 762.454 605.4 762.885 601.395 763.103C597.394 763.32 584.737 762.495 580.822 761.891C528.626 753.878 504.052 717.664 487.001 670.661C468.105 619.054 459.724 564.214 462.337 509.344C464.209 473.044 472.515 434.621 478.777 396.716C485.696 354.785 476.734 312.94 447.941 280.798C432.806 264.018 413.67 251.306 392.302 243.833C370.932 236.361 348.017 234.369 325.671 238.043C258.729 248.916 214.145 308.088 213.754 370.163C213.567 394.08 220.09 417.574 232.588 438C253.423 472.223 287.611 497.171 317.45 523.076C337.197 540.405 371.343 589.571 388.087 642.851C398.224 675.124 406.489 707.828 414.664 740.839C426.15 786.84 441.937 888.465 452.332 934.601C473.081 1026.96 536.587 1047.88 600.221 1050H602.482C666.12 1047.88 730.669 1026.91 751.417 934.556C761.767 888.424 777.514 786.754 789.086 740.794C797.306 707.959 805.526 675.079 815.662 642.81C832.406 589.526 866.554 540.188 886.301 523.035C916.14 497.044 950.284 472.178 971.164 437.955C983.659 417.533 990.184 394.039 989.996 370.12C989.647 307.915 945.236 248.699 878.122 238.043Z" fill="white"/>
</svg>
